<svg xmlns="http://www.w3.org/2000/svg" version="1.1" xmlns:xlink="http://www.w3.org/1999/xlink" xmlns:svgjs="http://svgjs.dev/svgjs" viewBox="0 0 800 800"><defs><linearGradient x1="50%" y1="0%" x2="50%" y2="100%" id="ffflurry-grad" gradientTransform="rotate(270)"><stop stop-color="hsl(210, 17%, 98%)" stop-opacity="1" offset="0%"></stop><stop stop-color="hsl(210, 29%, 24%)" stop-opacity="1" offset="45%"></stop><stop stop-color="hsl(30, 37%, 73%)" stop-opacity="1" offset="100%"></stop></linearGradient></defs><rect width="100%" height="100%" fill="hsl(210, 17%, 98%)"></rect><g fill="url(#ffflurry-grad)"><rect width="127" height="1" x="407.5" y="652.5" rx="0.5" transform="rotate(315, 471, 653)" opacity="0.89"></rect><rect width="91" height="1" x="190.5" y="462.5" rx="0.5" transform="rotate(315, 236, 463)" opacity="0.70"></rect><rect width="91" height="1" x="127.5" y="234.5" rx="0.5" transform="rotate(315, 173, 235)" opacity="0.48"></rect><rect width="79" height="1" x="25.5" y="398.5" rx="0.5" transform="rotate(315, 65, 399)" opacity="0.50"></rect><rect width="75" height="1" x="41.5" y="88.5" rx="0.5" transform="rotate(315, 79, 89)" opacity="0.40"></rect><rect width="91" height="1" x="251.5" y="97.5" rx="0.5" transform="rotate(315, 297, 98)" opacity="0.70"></rect><rect width="99" height="1" x="650.5" y="629.5" rx="0.5" transform="rotate(315, 700, 630)" opacity="0.10"></rect><rect width="113" height="1" x="629.5" y="287.5" rx="0.5" transform="rotate(315, 686, 288)" opacity="0.76"></rect><rect width="122" height="1" x="362" y="369.5" rx="0.5" transform="rotate(315, 423, 370)" opacity="0.39"></rect><rect width="101" height="1" x="500.5" y="102.5" rx="0.5" transform="rotate(315, 551, 103)" opacity="0.15"></rect><rect width="121" height="1" x="99.5" y="677.5" rx="0.5" transform="rotate(315, 160, 678)" opacity="0.49"></rect></g></svg>