<svg xmlns="http://www.w3.org/2000/svg" version="1.1" xmlns:xlink="http://www.w3.org/1999/xlink" xmlns:svgjs="http://svgjs.dev/svgjs" viewBox="0 0 800 800"><defs><linearGradient x1="50%" y1="0%" x2="50%" y2="100%" id="ffflurry-grad" gradientTransform="rotate(270)"><stop stop-color="hsl(210, 17%, 98%)" stop-opacity="1" offset="0%"></stop><stop stop-color="hsl(210, 29%, 24%)" stop-opacity="1" offset="45%"></stop><stop stop-color="hsl(0, 0%, 10%)" stop-opacity="1" offset="100%"></stop></linearGradient></defs><rect width="100%" height="100%" fill="hsl(210, 17%, 98%)"></rect><g fill="url(#ffflurry-grad)"><rect width="74" height="1" x="404" y="518.5" rx="0.5" transform="rotate(126, 441, 519)" opacity="0.47"></rect><rect width="106" height="1" x="640" y="656.5" rx="0.5" transform="rotate(126, 693, 657)" opacity="0.86"></rect><rect width="94" height="1" x="281" y="113.5" rx="0.5" transform="rotate(126, 328, 114)" opacity="0.19"></rect><rect width="99" height="1" x="242.5" y="619.5" rx="0.5" transform="rotate(126, 292, 620)" opacity="0.43"></rect><rect width="106" height="1" x="64" y="448.5" rx="0.5" transform="rotate(126, 117, 449)" opacity="0.56"></rect><rect width="102" height="1" x="288" y="336.5" rx="0.5" transform="rotate(126, 339, 337)" opacity="0.10"></rect><rect width="79" height="1" x="528.5" y="272.5" rx="0.5" transform="rotate(126, 568, 273)" opacity="0.12"></rect><rect width="105" height="1" x="61.5" y="688.5" rx="0.5" transform="rotate(126, 114, 689)" opacity="0.11"></rect><rect width="83" height="1" x="515.5" y="436.5" rx="0.5" transform="rotate(126, 557, 437)" opacity="0.35"></rect><rect width="79" height="1" x="74.5" y="78.5" rx="0.5" transform="rotate(126, 114, 79)" opacity="0.38"></rect><rect width="83" height="1" x="435.5" y="715.5" rx="0.5" transform="rotate(126, 477, 716)" opacity="0.62"></rect><rect width="89" height="1" x="76.5" y="251.5" rx="0.5" transform="rotate(126, 121, 252)" opacity="0.34"></rect><rect width="89" height="1" x="665.5" y="122.5" rx="0.5" transform="rotate(126, 710, 123)" opacity="0.92"></rect><rect width="97" height="1" x="462.5" y="101.5" rx="0.5" transform="rotate(126, 511, 102)" opacity="0.56"></rect><rect width="73" height="1" x="689.5" y="397.5" rx="0.5" transform="rotate(126, 726, 398)" opacity="0.20"></rect></g></svg>