<svg xmlns="http://www.w3.org/2000/svg" version="1.1" xmlns:xlink="http://www.w3.org/1999/xlink" xmlns:svgjs="http://svgjs.dev/svgjs" viewBox="0 0 1422 800" opacity="0.37">
  <rect width="100%" height="100%" fill="black"/>
  <g stroke-width="1.5" stroke="hsl(28, 100%, 71%)" fill="none" stroke-linecap="butt">
    <line x1="0" y1="0" x2="190" y2="190" opacity="1.00"></line>
    <line x1="380" y1="0" x2="190" y2="190" opacity="1.00"></line>
    <line x1="570" y1="0" x2="380" y2="190" opacity="1.00"></line>
    <line x1="760" y1="0" x2="570" y2="190" opacity="1.00"></line>
    <line x1="760" y1="0" x2="950" y2="190" opacity="1.00"></line>
    <line x1="1140" y1="0" x2="950" y2="190" opacity="1.00"></line>
    <line x1="1140" y1="0" x2="1330" y2="190" opacity="1.00"></line>
    <line x1="1330" y1="0" x2="1520" y2="190" opacity="1.00"></line>
    <line x1="190" y1="190" x2="0" y2="380" opacity="0.77"></line>
    <line x1="190" y1="190" x2="380" y2="380" opacity="0.77"></line>
    <line x1="380" y1="190" x2="570" y2="380" opacity="0.77"></line>
    <line x1="760" y1="190" x2="570" y2="380" opacity="0.77"></line>
    <line x1="760" y1="190" x2="950" y2="380" opacity="0.77"></line>
    <line x1="1140" y1="190" x2="950" y2="380" opacity="0.77"></line>
    <line x1="1140" y1="190" x2="1330" y2="380" opacity="0.77"></line>
    <line x1="1330" y1="190" x2="1520" y2="380" opacity="0.77"></line>
    <line x1="190" y1="380" x2="0" y2="570" opacity="0.55"></line>
    <line x1="380" y1="380" x2="190" y2="570" opacity="0.55"></line>
    <line x1="570" y1="380" x2="380" y2="570" opacity="0.55"></line>
    <line x1="570" y1="380" x2="760" y2="570" opacity="0.55"></line>
    <line x1="760" y1="380" x2="950" y2="570" opacity="0.55"></line>
    <line x1="1140" y1="380" x2="950" y2="570" opacity="0.55"></line>
    <line x1="1140" y1="380" x2="1330" y2="570" opacity="0.55"></line>
    <line x1="1330" y1="380" x2="1520" y2="570" opacity="0.55"></line>
    <line x1="190" y1="570" x2="0" y2="760" opacity="0.32"></line>
    <line x1="380" y1="570" x2="190" y2="760" opacity="0.32"></line>
    <line x1="570" y1="570" x2="380" y2="760" opacity="0.32"></line>
    <line x1="570" y1="570" x2="760" y2="760" opacity="0.32"></line>
    <line x1="760" y1="570" x2="950" y2="760" opacity="0.32"></line>
    <line x1="950" y1="570" x2="1140" y2="760" opacity="0.32"></line>
    <line x1="1140" y1="570" x2="1330" y2="760" opacity="0.32"></line>
    <line x1="1330" y1="570" x2="1520" y2="760" opacity="0.32"></line>
    <line x1="190" y1="760" x2="0" y2="950" opacity="0.10"></line>
    <line x1="190" y1="760" x2="380" y2="950" opacity="0.10"></line>
    <line x1="380" y1="760" x2="570" y2="950" opacity="0.10"></line>
    <line x1="570" y1="760" x2="760" y2="950" opacity="0.10"></line>
    <line x1="950" y1="760" x2="760" y2="950" opacity="0.10"></line>
    <line x1="1140" y1="760" x2="950" y2="950" opacity="0.10"></line>
    <line x1="1140" y1="760" x2="1330" y2="950" opacity="0.10"></line>
    <line x1="1520" y1="760" x2="1330" y2="950" opacity="0.10"></line>
  </g>
</svg>
