<svg xmlns="http://www.w3.org/2000/svg" version="1.1" xmlns:xlink="http://www.w3.org/1999/xlink" xmlns:svgjs="http://svgjs.dev/svgjs" viewBox="0 0 1422 800" width="1422" height="800"><g transform="scale(1) rotate(102) translate(0 0) skewX(0) skewY(0)" transform-origin="711 400"><rect width="2844" height="1600" x="-711" y="-400" fill="url(#rrreplicate-pattern1)"></rect><rect width="2844" height="1600" x="-711" y="-400" fill="url(#rrreplicate-pattern2)"></rect><rect width="2844" height="1600" x="-711" y="-400" fill="url(#rrreplicate-pattern3)"></rect></g><defs><pattern id="rrreplicate-pattern1" width="800" height="800" patternUnits="userSpaceOnUse" patternTransform="rotate(171)" stroke-width="1.6" fill="none" stroke="#1a1a1a" stroke-opacity="1">
      <line x1="100" y1="0" x2="100" y2="800"></line><line x1="300" y1="0" x2="300" y2="800"></line><line x1="500" y1="0" x2="500" y2="800"></line><line x1="700" y1="0" x2="700" y2="800"></line>
      </pattern><pattern id="rrreplicate-pattern2" width="800" height="800" patternUnits="userSpaceOnUse" patternTransform="rotate(229)" stroke-opacity="0.1" stroke-width="2.2" fill="none" stroke="#B0B0B0">
      <line x1="200" y1="0" x2="200" y2="800"></line><line x1="600" y1="0" x2="600" y2="800"></line>
      </pattern><pattern id="rrreplicate-pattern3" width="800" height="800" patternUnits="userSpaceOnUse" patternTransform="rotate(115)" stroke-opacity="0.16" stroke-width="1.2" fill="none" stroke="#F0EDE5">
      <line x1="100" y1="0" x2="100" y2="800"></line><line x1="300" y1="0" x2="300" y2="800"></line><line x1="500" y1="0" x2="500" y2="800"></line><line x1="700" y1="0" x2="700" y2="800"></line>
      </pattern></defs></svg>